<svg width="353" height="354" viewBox="0 0 353 354" fill="none" xmlns="http://www.w3.org/2000/svg">
<circle cx="177" cy="177" r="176" fill="white"/>
<path fill-rule="evenodd" clip-rule="evenodd" d="M166.532 0.150216C165.204 0.280745 161.129 0.681399 157.477 1.04096C132.806 3.46664 105.309 12.9349 83.496 26.5154C61.1961 40.3987 40.1788 61.4388 26.3106 83.763C13.1143 105.005 4.4501 129.607 1.0431 155.508C-0.347701 166.081 -0.347701 187.64 1.0431 198.213C6.37211 238.725 23.2254 273.084 51.7991 301.689C80.3728 330.294 114.694 347.166 155.163 352.5C165.724 353.893 187.26 353.893 197.822 352.5C238.29 347.166 272.612 330.294 301.186 301.689C329.759 273.084 346.613 238.725 351.942 198.213C353.332 187.64 353.332 166.081 351.942 155.508C347.746 123.611 336.51 95.9712 317.182 69.9976C309.539 59.7268 293.499 43.6692 283.239 36.0175C257.361 16.7184 229.146 5.21127 198.139 1.30927C190.851 0.392541 171.341 -0.322955 166.532 0.150216ZM84.5657 57.9417L91.3543 64.7183L98.2154 57.9417C101.989 54.2143 105.457 51.1747 105.923 51.1862C107.588 51.2285 109.563 52.787 111.615 55.6749C118.978 66.043 118.008 79.3208 109.213 88.5515C105.468 92.4825 101.219 94.8339 95.435 96.1766C93.3077 96.6704 90.5062 97.5273 89.209 98.0808C85.3523 99.7269 78.5081 99.5039 74.4757 97.601C69.5705 95.2865 66.3615 92.1846 64.0881 87.5617C61.4442 82.1858 61.3753 77.3145 63.8382 69.8984C67.9497 57.5181 68.4139 56.4956 71.146 53.7992C75.4838 49.5177 76.4146 49.8053 84.5657 57.9417ZM252.535 58.1586L258.855 64.4313L265.571 57.7985C271.561 51.8817 272.517 51.165 274.416 51.165C276.17 51.165 276.991 51.6509 279.088 53.9279C282.994 58.1701 284.688 62.4945 285.013 69.056C285.213 73.0982 285.014 75.5034 284.263 78.1206C281.655 87.2015 274.311 93.8887 264.423 96.1845C262.314 96.674 259.528 97.5273 258.231 98.0808C254.373 99.7269 247.54 99.5027 243.425 97.5949C238.685 95.3977 235.385 92.1894 233.113 87.5683C230.005 81.2473 230.075 78.0946 233.56 67.6027C237.437 55.9299 241.322 50.4785 245.006 51.5391C245.67 51.73 249.058 54.7086 252.535 58.1586ZM74.5614 63.1C71.9935 68.1792 72.1233 68.8542 76.6464 73.9134C82.3111 80.2496 82.8936 80.4442 86.2668 77.1302C87.75 75.6732 88.9633 74.1932 88.9633 73.8409C88.9633 73.1375 76.8312 60.8339 76.1376 60.8339C75.9009 60.8339 75.1917 61.8539 74.5614 63.1ZM271.013 63.8046L268.09 66.7754L269.342 69.3945C271.223 73.3303 272.07 77.4746 271.676 80.8098C271.481 82.4529 271.568 83.7975 271.868 83.7975C272.714 83.7975 275.829 78.9376 276.71 76.2436C277.86 72.7278 277.613 67.089 276.161 63.7043C275.484 62.1259 274.707 60.8339 274.433 60.8339C274.16 60.8339 272.621 62.1706 271.013 63.8046ZM102.583 64.4216L99.6473 67.4051L101.069 70.6158C102.195 73.1599 102.496 74.9172 102.518 79.0772L102.545 84.3286L103.917 83.039C106.531 80.5801 108.489 75.5566 108.538 71.185C108.579 67.3948 106.994 61.4382 105.944 61.4382C105.71 61.4382 104.198 62.7809 102.583 64.4216ZM243.083 63.7043C242.557 64.951 241.994 67.1114 241.832 68.5049C241.551 70.9227 241.701 71.2122 245.078 74.7565C250.309 80.2472 250.343 80.2538 253.981 76.6117L257.061 73.5285L251.045 67.483C247.736 64.1588 244.807 61.4382 244.534 61.4382C244.262 61.4382 243.609 62.4582 243.083 63.7043ZM166.424 87.4668C169.421 88.3001 173.218 91.7646 174.114 94.4834C175.361 98.2657 174.9 101.444 172.399 106.308C172.271 106.557 174.634 106.761 177.65 106.761C180.665 106.761 183.132 106.546 183.132 106.284C183.132 106.023 182.589 104.741 181.925 103.437C178.822 97.3448 182.404 89.2942 189.037 87.4499C191.841 86.6703 192.537 86.6715 195.373 87.4595C202.412 89.4169 205.76 98.305 201.846 104.645C201.182 105.721 200.638 106.734 200.638 106.896C200.638 107.059 202.472 107.364 204.713 107.574C214.019 108.447 222.957 112.125 227.974 117.149C230.908 120.085 231.112 120.181 233.85 119.918C240.801 119.25 248.845 113.326 252.172 106.426C254.403 101.799 255.389 100.718 257.381 100.718C259.76 100.718 261.242 102.635 260.83 105.177C259.39 114.063 248.92 124.228 238.377 126.977C236.444 127.481 234.77 127.986 234.657 128.1C234.543 128.214 234.737 130.595 235.087 133.393C237.9 155.845 222.685 177.427 199.569 183.777C196.671 184.573 192.806 185.721 190.98 186.33C188.027 187.314 185.422 187.436 167.438 187.436C145.958 187.436 144.829 187.316 137.917 184.308C136.123 183.526 134.549 182.994 134.42 183.123C134.29 183.253 138.135 189.606 142.963 197.242C147.792 204.878 151.743 211.709 151.743 212.424C151.743 215.271 147.824 217.155 145.586 215.385C144.605 214.61 125.777 185.128 122.622 179.427C121.373 177.172 120.913 175.588 121.03 173.955C121.159 172.17 120.693 170.852 118.95 168.064C117.714 166.089 116.383 163.589 115.992 162.508C115.601 161.428 115.077 160.544 114.826 160.544C114.576 160.544 114.21 161.428 114.014 162.508C113.764 163.879 115.136 170.478 118.559 184.377C123.838 205.813 123.883 206.317 120.646 207.794C119.356 208.382 118.852 208.301 117.488 207.281C116.01 206.177 115.407 204.228 110.733 185.46C105.684 165.188 105.612 164.794 106.327 161.382C107.146 157.474 109.513 153.468 111.42 152.761C112.594 152.326 112.701 151.79 112.82 145.691C112.932 139.955 113.196 138.434 114.84 134.065C115.88 131.3 116.731 128.824 116.731 128.561C116.731 128.3 114.978 127.652 112.835 127.123C103.579 124.836 95.7537 118.805 91.6254 110.777C89.1052 105.876 89.1124 103.592 91.6519 102.434C94.3895 101.185 95.9723 102.209 98.3748 106.786C102.194 114.062 109.455 119.234 116.784 119.9C120.195 120.209 120.284 120.177 122.264 117.917C127.51 111.93 136.612 108.443 150.686 107.029C152.927 106.805 154.761 106.574 154.761 106.516C154.761 106.459 154.218 105.346 153.554 104.042C152.121 101.229 151.943 95.9917 153.198 93.5872C154.475 91.1398 157.356 88.6385 159.975 87.7043C162.84 86.6818 163.511 86.657 166.424 87.4668ZM161.393 95.7687C159.896 96.9816 159.602 99.5777 160.796 101.018C161.21 101.518 162.433 101.927 163.514 101.927C165.81 101.927 166.985 100.761 166.985 98.4863C166.985 96.8504 165.004 94.6749 163.514 94.6749C163.09 94.6749 162.135 95.1674 161.393 95.7687ZM189.773 95.8835C187.414 98.2452 188.949 101.927 192.292 101.927C195.508 101.927 196.887 98.1449 194.488 95.9071C192.819 94.3498 191.312 94.3426 189.773 95.8835ZM148.041 115.267C142.753 115.828 136.635 117.309 133.962 118.675C131.385 119.992 128.683 121.95 129.003 122.269C129.151 122.417 131.679 122.047 134.621 121.447C139.308 120.493 143.339 120.358 167.136 120.358C190.745 120.358 195.011 120.499 199.733 121.434C210.352 123.537 217.155 128.268 219.978 135.514C221.908 140.47 221.95 151.657 220.059 157.497C217.887 164.209 219.617 162.863 223.524 154.803C226.528 148.609 227.452 144.636 227.46 137.883C227.469 131.579 226.727 128.627 224.162 124.749C220.685 119.495 213.586 116.394 202.398 115.245C195.36 114.522 154.905 114.538 148.041 115.267ZM110.194 137.976C111.957 139.573 111.602 142.1 109.387 143.729C104.546 147.288 99.9938 152.477 98.5848 156.041C97.2665 159.375 97.1464 160.654 96.9387 173.537C96.6942 188.669 96.4884 189.56 93.2462 189.542C89.4197 189.519 88.9615 187.952 88.9754 174.936C88.982 168.848 89.2597 161.979 89.5929 159.672C90.4102 154.009 93.6126 147.502 97.5846 143.432C103.339 137.535 107.649 135.67 110.194 137.976ZM251.435 138.847C255.297 141.328 259.947 146.498 261.846 150.422C264.746 156.417 265.229 159.753 265.229 173.832C265.229 188.566 264.985 189.551 261.345 189.551C257.841 189.551 257.717 189.035 257.349 172.993C257.049 159.928 256.885 158.149 255.756 155.71C253.713 151.294 251.026 148.092 247.151 145.458C243.066 142.681 242.183 140.872 243.747 138.483C245.123 136.38 247.792 136.507 251.435 138.847ZM244.562 154.048C246.599 156.22 248.299 160.608 248.313 163.731C248.326 166.514 239.26 204.235 238.022 206.551C237.245 208.004 234.895 208.569 233.262 207.694C230.563 206.248 230.675 205.205 235.682 185.26C238.302 174.824 240.454 165.391 240.463 164.297C240.472 163.204 239.936 161.243 239.272 159.94C237.802 157.057 237.742 155.255 239.063 153.793C240.429 152.283 243.019 152.403 244.562 154.048ZM231.787 170.675C233.707 171.959 233.961 175.957 232.3 178.753C227.355 187.073 209.867 214.304 208.969 215.083C206.495 217.226 202.902 215.558 202.902 212.265C202.902 211.361 207.386 203.668 214.214 192.861C220.435 183.013 225.668 174.365 225.844 173.642C226.534 170.793 229.642 169.241 231.787 170.675ZM181.934 222.334C181.939 224.412 182.343 227.808 182.831 229.881C183.839 234.16 187.284 242.73 187.997 242.73C188.256 242.73 188.899 241.433 189.424 239.848C191.581 233.348 196.255 228.466 201.685 227.042C206.209 225.856 208.827 228.16 210.345 234.661C211.334 238.899 211.042 256.433 209.785 268.256C209.193 273.82 208.887 278.66 209.103 279.011C210.228 280.832 211.575 275.999 214.831 258.457C216.096 251.636 218.197 245.201 219.971 242.707C222.389 239.307 225.964 238.319 229.895 239.962C234.37 241.835 234.953 246.612 232.665 262.672C229.217 286.879 230.826 299.471 238.45 307.959C240.715 310.482 240.986 311.016 240 311.016C237.827 311.016 231.383 306.129 228.642 302.402C222.875 294.559 221.802 285.81 224.293 266.932C225.969 254.231 226.083 248.261 224.669 247.359C223.163 246.4 221.358 248.31 220.25 252.037C219.746 253.732 218.103 260.781 216.6 267.703C213.705 281.034 212.073 286.275 210.243 288.106C207.568 290.784 203.576 290.029 201.894 286.525C201.16 284.998 201.148 282.82 201.81 271.44C202.918 252.383 203.262 240.712 202.791 238.198C201.973 233.832 198.221 232.243 195.851 235.259C193.294 238.514 192.863 241.155 190.099 270.528C189.192 280.163 187.656 289.613 186.762 291.061C186.186 291.994 180.502 292.897 179.419 292.226C178.886 291.896 179.228 288.9 180.767 280.401C182.57 270.445 182.828 267.765 182.829 259.046C182.831 249.171 182.809 249.01 180.615 242.427C179.397 238.771 178.22 233.877 178 231.55C177.452 225.757 179.117 218.557 181.005 218.557C181.73 218.557 181.927 219.356 181.934 222.334ZM114.761 230.122C115.491 230.852 114.253 234.996 112.845 236.54C112.463 236.958 108.803 237.847 104.711 238.515C90.4664 240.842 80.8521 244.344 76.3555 248.846C71.7901 253.416 72.5573 258.311 78.8721 264.909L82.4596 268.657L80.8497 269.062C76.6736 270.111 71.7732 267.495 69.387 262.942C68.4435 261.141 68.1386 259.446 68.1435 256.024C68.1483 252.144 68.4054 251.027 69.9315 248.26C71.944 244.611 76.3144 240.415 80.805 237.822C89.2029 232.972 112.363 227.721 114.761 230.122ZM148.121 233.862C148.121 234.303 147.711 237.588 147.209 241.162C146.708 244.736 146.431 247.876 146.594 248.139C146.755 248.402 148.255 248.748 149.925 248.909C152.958 249.2 155.365 250.642 155.365 252.166C155.365 252.936 153.102 253.711 148.63 254.473L146.424 254.849L145.985 261.304C145.167 273.314 146.434 281.055 149.517 282.874C151.079 283.796 152.654 281.662 154.221 276.498C155.375 272.693 156.572 271.035 156.572 273.24C156.572 275.608 152.725 285.868 151.194 287.583C147.928 291.242 143.194 289.204 141.48 283.401C140.477 280.009 139.749 269.293 140.04 262.218C140.235 257.469 140.115 256.024 139.525 256.024C138.005 256.024 134.615 257.225 134.189 257.914C133.543 258.962 131.822 258.057 131.822 256.668C131.822 254.947 134.972 251.586 137.768 250.324C140.02 249.307 140.173 249.068 140.565 245.926C141.283 240.173 142.534 236.947 144.829 234.93C147.12 232.916 148.121 232.591 148.121 233.862ZM92.284 251.643C92.8683 256.213 93.6506 262.252 94.0225 265.062L94.698 270.173L100.522 270.001C104.948 269.87 106.796 270.061 108.218 270.798C111.813 272.658 110.36 273.568 101.196 275.193L95.4549 276.212L95.9819 282.585C96.9405 294.177 96.6821 297.499 94.4468 302.354C92.5683 306.435 88.2184 311.68 87.3962 310.857C87.1862 310.647 87.6147 309.233 88.3488 307.715C89.0822 306.197 89.8301 303.33 90.01 301.345C90.3257 297.862 88.5401 279.127 87.8103 278.262C87.2272 277.571 82.7173 278.839 81.9308 279.916C81.0066 281.181 78.7013 280.548 78.7013 279.03C78.7013 277.539 81.2964 275.071 84.4909 273.523C87.6063 272.012 87.5459 272.428 86.2469 261.463C85.7549 257.308 85.3456 252.55 85.3372 250.888C85.3239 248.078 85.5032 247.708 87.8979 245.618C89.314 244.382 90.6408 243.362 90.8473 243.352C91.0531 243.342 91.6996 247.073 92.284 251.643ZM130.115 263.672C132.533 265.862 130.839 273.507 127.566 275.174C125.591 276.18 125.182 275.708 125.182 272.426C125.182 269.062 124.343 267.87 122.624 268.791C119.683 270.367 118.595 279.773 121.001 282.834C121.688 283.71 122.738 284.427 123.333 284.427C124.71 284.427 127.243 281.905 128.207 279.576C129.187 277.206 129.679 277.31 130.502 280.057C130.877 281.31 131.574 282.87 132.052 283.524C132.898 284.682 132.953 284.683 134.154 283.596C134.832 282.981 135.983 280.47 136.711 278.014C137.945 273.852 139.066 272.212 139.066 274.568C139.066 276.263 136.589 284.576 135.367 286.986C133.023 291.606 129.304 292.133 127.52 288.098C126.581 285.975 126.018 285.762 125.518 287.342C125.325 287.948 124.374 289.205 123.403 290.137C116.763 296.505 111.333 283.593 116.403 273.487C118.605 269.1 121.788 265.318 124.477 263.896C127.226 262.443 128.694 262.384 130.115 263.672ZM257.095 265.328C259.668 267.212 257.479 274.343 253.731 276.283C250.875 277.762 250.642 277.521 251.09 273.559C251.443 270.435 251.354 269.889 250.434 269.535C247.849 268.542 244.717 273.467 244.254 279.254C243.975 282.721 244.07 283.128 245.367 284.037C247.454 285.5 248.078 285.312 251.371 282.229L254.363 279.427V282.113C254.363 283.591 254.755 285.328 255.233 285.973C256.485 287.66 257.794 286.664 260.701 281.811C262.029 279.594 263.445 277.78 263.848 277.78C264.251 277.779 265.676 276.163 267.015 274.188C269.437 270.62 271.473 268.715 272.865 268.715C275.388 268.715 276.132 272.877 274.85 279.819C273.79 285.56 274.375 285.708 277.44 280.476C281.135 274.167 284.259 270.528 285.981 270.528C289.132 270.528 289.455 273.043 287.523 282.527C285.98 290.103 286.1 291.98 288.127 291.98C289.277 291.98 290.232 291.032 292.533 287.599C295.062 283.83 296.618 282.292 296.618 283.566C296.618 284.535 291.301 292.84 289.265 295.051C286.539 298.011 285.375 298.445 282.923 297.413C280.029 296.194 279.339 293.685 280.285 287.813C281.703 279.005 281.75 278.209 280.843 278.506C280.389 278.654 278.503 281.569 276.651 284.984C272.143 293.295 270.407 295.427 268.344 295.188C266.971 295.029 266.711 294.68 266.553 292.783C266.452 291.562 266.927 287.619 267.609 284.02C269.31 275.043 269.259 274.511 266.96 277.326C265.944 278.573 264.798 279.593 264.416 279.595C264.033 279.596 262.655 281.672 261.355 284.208C258.274 290.216 255.527 293.021 252.969 292.77C251.121 292.589 250.193 291.501 249.247 288.41C248.916 287.325 248.797 287.347 247.252 288.789C241.923 293.763 237.805 291.68 237.877 284.046C237.943 276.997 243.265 269.247 250.287 265.974C253.918 264.281 255.465 264.135 257.095 265.328ZM132.305 312.345C133.351 313.392 133.21 316.898 132.098 317.521C131.271 317.984 131.303 318.365 132.378 320.875C133.587 323.697 133.587 323.706 132.39 323.706C131.625 323.706 130.975 323.103 130.601 322.045C129.694 319.485 129.062 318.587 128.021 318.381C127.29 318.237 127.022 318.804 126.879 320.794C126.741 322.698 126.409 323.448 125.635 323.595C124.685 323.775 124.579 323.179 124.579 317.707V311.62H128.08C130.005 311.62 131.907 311.947 132.305 312.345ZM143.747 312.376C143.609 312.798 142.255 313.212 140.679 313.315C138.14 313.481 137.859 313.647 137.859 314.977C137.859 316.298 138.115 316.455 140.273 316.455C142.017 316.455 142.688 316.707 142.688 317.361C142.688 318.018 142.013 318.268 140.234 318.268C137.911 318.268 137.789 318.358 137.97 319.929C138.144 321.451 138.402 321.607 141.028 321.776C143.041 321.905 143.895 322.22 143.895 322.833C143.895 323.505 142.991 323.706 139.972 323.706H136.048V317.663V311.62H140.022C142.931 311.62 143.929 311.823 143.747 312.376ZM153.588 312.894C154.62 314.824 153.38 315.677 151.817 314.112C150.494 312.788 148.724 312.962 148.724 314.417C148.724 314.887 149.472 315.591 150.385 315.98C153.051 317.118 154.157 318.338 154.157 320.14C154.157 322 152.28 323.706 150.234 323.706C148.463 323.706 146.31 322.029 146.31 320.65C146.31 319.089 147.76 319.155 148.828 320.765C149.471 321.735 150.022 321.946 151.049 321.62C153.062 320.98 152.414 319.357 149.622 318.046C147.012 316.821 146.333 316.099 146.319 314.534C146.293 311.671 152.22 310.334 153.588 312.894ZM164.876 312.376C164.739 312.791 163.902 313.217 163.015 313.322C161.408 313.512 161.401 313.537 161.401 318.61C161.401 322.737 161.229 323.706 160.496 323.706C159.762 323.706 159.59 322.733 159.59 318.57C159.59 313.494 159.573 313.433 158.081 313.433C157.142 313.433 156.572 313.091 156.572 312.527C156.572 311.806 157.45 311.62 160.848 311.62C163.998 311.62 165.059 311.819 164.876 312.376ZM173.233 316.908C174.117 319.816 174.97 322.536 175.127 322.951C175.297 323.398 174.924 323.706 174.213 323.706C173.519 323.706 172.878 323.196 172.695 322.498C172.445 321.538 171.872 321.289 169.909 321.289C167.84 321.289 167.438 321.486 167.438 322.498C167.438 323.324 167.035 323.706 166.166 323.706C165.399 323.706 165.007 323.407 165.178 322.951C165.335 322.536 166.235 319.816 167.179 316.908C168.665 312.326 169.076 311.62 170.259 311.62C171.451 311.62 171.829 312.294 173.233 316.908ZM179.511 316.079C179.511 320.978 180.456 322.733 182.429 321.493C183.195 321.011 183.476 319.762 183.611 316.24C183.746 312.677 183.988 311.62 184.667 311.62C185.368 311.62 185.547 312.655 185.547 316.722C185.547 321.31 185.412 321.92 184.205 322.765C183.467 323.283 182.305 323.706 181.623 323.706C180.941 323.706 179.779 323.283 179.042 322.765C177.835 321.92 177.7 321.31 177.7 316.722C177.7 312.59 177.872 311.62 178.605 311.62C179.328 311.62 179.511 312.518 179.511 316.079ZM196.995 312.789C197.893 314.468 197.767 315.895 196.609 317.176C195.664 318.222 195.664 318.431 196.609 320.417C197.849 323.019 197.877 323.706 196.743 323.706C196.261 323.706 195.315 322.462 194.643 320.94C193.035 317.299 191.367 317.394 191.096 321.144C190.97 322.888 190.632 323.706 190.04 323.706C189.339 323.706 189.169 322.525 189.169 317.663V311.62H192.77C195.712 311.62 196.485 311.834 196.995 312.789ZM207.537 316.908C208.481 319.816 209.381 322.536 209.538 322.951C209.706 323.398 209.331 323.706 208.621 323.706C207.927 323.706 207.286 323.196 207.103 322.498C206.855 321.545 206.28 321.289 204.387 321.289C202.494 321.289 201.92 321.545 201.67 322.498C201.497 323.163 200.893 323.706 200.329 323.706C199.758 323.706 199.428 323.371 199.586 322.951C199.743 322.536 200.643 319.816 201.587 316.908C203.017 312.497 203.511 311.62 204.562 311.62C205.613 311.62 206.107 312.497 207.537 316.908ZM215.875 315.095L217.842 318.57L218.023 315.095C218.156 312.546 218.437 311.62 219.08 311.62C219.786 311.62 219.955 312.787 219.955 317.663C219.955 324.925 219.37 325.304 216.333 320.011L214.22 316.329L214.04 320.018C213.907 322.757 213.635 323.706 212.984 323.706C212.276 323.706 212.108 322.544 212.108 317.663C212.108 310.357 212.891 309.823 215.875 315.095ZM230.673 312.376C230.536 312.791 229.834 313.218 229.114 313.324C227.886 313.505 227.802 313.844 227.802 318.656C227.802 323.224 227.685 323.773 226.746 323.593C225.86 323.424 225.661 322.593 225.515 318.451C225.355 313.937 225.229 313.495 224.053 313.321C223.345 313.216 222.654 312.791 222.517 312.376C222.334 311.819 223.404 311.62 226.595 311.62C229.786 311.62 230.856 311.819 230.673 312.376ZM126.993 314.944C126.993 316.208 127.279 316.455 128.74 316.455C130.494 316.455 131.268 315.594 130.777 314.189C130.633 313.773 129.722 313.433 128.754 313.433C127.278 313.433 126.993 313.678 126.993 314.944ZM190.98 314.944C190.98 316.267 191.241 316.455 193.093 316.455C194.944 316.455 195.205 316.267 195.205 314.944C195.205 313.621 194.944 313.433 193.093 313.433C191.241 313.433 190.98 313.621 190.98 314.944ZM169.334 315.866C168.306 318.818 168.464 319.476 170.202 319.476C171.642 319.476 171.728 319.329 171.34 317.512C170.616 314.118 170.092 313.688 169.334 315.866ZM204.117 314.384C203.924 314.697 203.576 315.971 203.342 317.215C202.965 319.23 203.053 319.476 204.158 319.476C205.921 319.476 206.167 318.728 205.262 316.112C204.826 314.849 204.31 314.072 204.117 314.384Z" fill="black"/>
</svg>
