<svg width="224" height="169" viewBox="0 0 224 169" fill="none" xmlns="http://www.w3.org/2000/svg">
<path fill-rule="evenodd" clip-rule="evenodd" d="M22.5195 6.87853L29.3081 13.6552L36.1692 6.87853C39.9426 3.15119 43.4111 0.111536 43.8771 0.123018C45.5414 0.165315 47.5171 1.72382 49.5683 4.61179C56.9317 14.9798 55.9616 28.2576 47.167 37.4884C43.4214 41.4194 39.1729 43.7707 33.3887 45.1135C31.2615 45.6072 28.46 46.4641 27.1627 47.0177C23.306 48.6638 16.4619 48.4408 12.4295 46.5378C7.52423 44.2234 4.31524 41.1215 2.04189 36.4985C-0.602083 31.1226 -0.670901 26.2513 1.79198 18.8353C5.90343 6.45492 6.36764 5.43244 9.09975 2.73602C13.4376 -1.54547 14.3684 -1.25783 22.5195 6.87853ZM12.5152 12.0369C9.94727 17.1161 10.0771 17.7911 14.6002 22.8503C20.2648 29.1864 20.8474 29.381 24.2205 26.067C25.7037 24.61 26.917 23.1301 26.917 22.7778C26.917 22.0744 14.7849 9.77074 14.0913 9.77074C13.8547 9.77074 13.1454 10.7908 12.5152 12.0369ZM40.5366 13.3585L37.601 16.342L39.0226 19.5526C40.1484 22.0967 40.4496 23.8541 40.4714 28.0141L40.4991 33.2655L41.8706 31.9759C44.4844 29.517 46.4427 24.4934 46.4916 20.1219C46.5332 16.3317 44.948 10.375 43.8977 10.375C43.6635 10.375 42.1513 11.7178 40.5366 13.3585Z" fill="white"/>
<path fill-rule="evenodd" clip-rule="evenodd" d="M190.488 7.09548L196.809 13.3682L203.525 6.73531C209.515 0.818567 210.471 0.101869 212.369 0.101869C214.124 0.101869 214.945 0.587724 217.042 2.86475C220.948 7.10697 222.642 11.4314 222.966 17.9929C223.167 22.0351 222.968 24.4402 222.217 27.0575C219.609 36.1384 212.264 42.8256 202.377 45.1213C200.268 45.6108 197.482 46.4641 196.184 47.0177C192.327 48.6638 185.494 48.4396 181.379 46.5318C176.639 44.3345 173.339 41.1263 171.066 36.5052C167.958 30.1842 168.029 27.0315 171.514 16.5396C175.391 4.86681 179.275 -0.584624 182.96 0.475931C183.624 0.666887 187.012 3.64551 190.488 7.09548ZM208.967 12.7415L206.044 15.7123L207.296 18.3313C209.177 22.2672 210.024 26.4115 209.629 29.7466C209.435 31.3897 209.521 32.7343 209.822 32.7343C210.668 32.7343 213.783 27.8745 214.664 25.1805C215.814 21.6647 215.567 16.0259 214.115 12.6412C213.438 11.0627 212.66 9.77074 212.387 9.77074C212.113 9.77074 210.575 11.1075 208.967 12.7415ZM181.036 12.6412C180.511 13.8879 179.947 16.0483 179.786 17.4418C179.504 19.8596 179.655 20.1491 183.032 23.6933C188.263 29.184 188.296 29.1907 191.935 25.5485L195.014 22.4654L188.998 16.4199C185.69 13.0956 182.76 10.375 182.488 10.375C182.216 10.375 181.563 11.3951 181.036 12.6412Z" fill="white"/>
<path fill-rule="evenodd" clip-rule="evenodd" d="M112.068 43.4202C111.172 40.7015 107.374 37.237 104.378 36.4037C101.465 35.5939 100.793 35.6187 97.9284 36.6411C95.3098 37.5754 92.4292 40.0766 91.1519 42.524C89.8969 44.9286 90.075 50.1661 91.5074 52.9785C92.1714 54.2826 92.7147 55.3957 92.7147 55.4532C92.7147 55.5106 90.8808 55.7414 88.6401 55.9662C74.5654 57.3803 65.4642 60.8665 60.2173 66.8539C58.2373 69.114 58.1486 69.1461 54.7374 68.8367C47.4091 68.1713 40.1478 62.9985 36.3285 55.7233C33.926 51.1463 32.3432 50.1214 29.6057 51.3705C27.0661 52.5289 27.0589 54.8126 29.5791 59.7141C33.7075 67.7423 41.5332 73.7733 50.7889 76.0599C52.9319 76.5893 54.6849 77.2365 54.6849 77.4982C54.6849 77.7604 53.8337 80.2369 52.7937 83.0016C51.1499 87.3707 50.8855 88.8917 50.7738 94.6278C50.6543 100.726 50.5481 101.263 49.3734 101.698C47.4664 102.405 45.0995 106.411 44.281 110.319C43.5657 113.73 43.6381 114.125 48.6864 134.396C53.3611 153.164 53.9641 155.114 55.4418 156.218C56.8055 157.237 57.3101 157.319 58.6001 156.73C61.8369 155.254 61.7916 154.75 56.5127 133.314C53.0894 119.415 51.7179 112.816 51.9678 111.445C52.164 110.364 52.5298 109.481 52.7798 109.481C53.0303 109.481 53.5548 110.364 53.946 111.445C54.3372 112.525 55.6682 115.025 56.9033 117.001C58.6472 119.789 59.1126 121.107 58.9841 122.892C58.8663 124.525 59.3269 126.109 60.5753 128.364C63.7305 134.065 82.5589 163.547 83.5393 164.322C85.7776 166.092 89.6965 164.207 89.6965 161.361C89.6965 160.646 85.7456 153.815 80.917 146.179C76.0884 138.543 72.2438 132.19 72.3736 132.06C72.5028 131.931 74.0765 132.463 75.8705 133.245C82.7829 136.253 83.9117 136.373 105.391 136.373C123.376 136.373 125.981 136.25 128.934 135.267C130.76 134.658 134.625 133.509 137.523 132.713C160.639 126.364 175.853 104.782 173.041 82.3296C172.691 79.5323 172.497 77.1507 172.611 77.0371C172.724 76.9229 174.398 76.4177 176.33 75.9143C186.874 73.1647 197.343 63.0003 198.784 54.114C199.196 51.5723 197.713 49.6548 195.335 49.6548C193.343 49.6548 192.357 50.7359 190.125 55.3631C186.799 62.2625 178.755 68.1864 171.804 68.8548C169.065 69.1183 168.861 69.0222 165.928 66.0859C160.911 61.0623 151.973 57.3839 142.667 56.5107C140.426 56.3004 138.592 55.9958 138.592 55.8333C138.592 55.6713 139.136 54.6579 139.8 53.5816C143.714 47.2419 140.366 38.3537 133.326 36.3964C130.491 35.6084 129.794 35.6072 126.99 36.3867C120.358 38.2311 116.776 46.2816 119.879 52.3742C120.543 53.6783 121.086 54.9594 121.086 55.2211C121.086 55.4834 118.619 55.6979 115.603 55.6979C112.587 55.6979 110.225 55.4936 110.353 55.2447C112.854 50.3806 113.315 47.2026 112.068 43.4202ZM98.7494 49.9552C97.5554 48.5145 97.85 45.9184 99.3464 44.7056C100.088 44.1043 101.043 43.6118 101.468 43.6118C102.957 43.6118 104.939 45.7873 104.939 47.4231C104.939 49.6984 103.763 50.8634 101.468 50.8634C100.387 50.8634 99.1641 50.4549 98.7494 49.9552ZM130.246 50.8634C126.902 50.8634 125.367 47.182 127.726 44.8204C129.266 43.2794 130.772 43.2867 132.441 44.844C134.841 47.0817 133.462 50.8634 130.246 50.8634ZM71.9154 67.6118C74.589 66.246 80.707 64.7649 85.9943 64.2035C92.859 63.4753 133.314 63.459 140.352 64.1817C151.54 65.3311 158.639 68.4318 162.116 73.6862C164.681 77.5634 165.422 80.5155 165.414 86.8196C165.405 93.5733 164.481 97.5454 161.478 103.74C157.571 111.8 155.841 113.146 158.013 106.433C159.904 100.593 159.862 89.4066 157.932 84.4513C155.109 77.2051 148.306 72.4734 137.687 70.3704C132.965 69.4355 128.699 69.2947 105.09 69.2947C81.2925 69.2947 77.2619 69.4301 72.5752 70.3843C69.6324 70.9838 67.1043 71.3536 66.9564 71.2061C66.6371 70.8865 69.3384 68.9285 71.9154 67.6118Z" fill="white"/>
<path d="M48.148 86.9132C49.9106 88.5098 49.5557 91.0364 47.3403 92.6656C42.5002 96.225 37.9475 101.414 36.5386 104.978C35.2202 108.312 35.1001 109.59 34.8924 122.474C34.648 137.606 34.4421 138.497 31.1999 138.479C27.3734 138.456 26.9152 136.889 26.9291 123.873C26.9358 117.785 27.2134 110.916 27.5466 108.608C28.364 102.946 31.5663 96.4389 35.5383 92.3689C41.2923 86.4721 45.603 84.6072 48.148 86.9132Z" fill="white"/>
<path d="M199.8 99.3589C197.9 95.4345 193.251 90.2653 189.389 87.784C185.745 85.4436 183.077 85.3167 181.7 87.4196C180.136 89.8091 181.019 91.6178 185.104 94.3951C188.98 97.0293 191.667 100.231 193.71 104.647C194.839 107.086 195.002 108.865 195.302 121.93C195.671 137.972 195.795 138.488 199.299 138.488C202.939 138.488 203.182 137.503 203.182 122.768C203.182 108.69 202.7 105.354 199.8 99.3589Z" fill="white"/>
<path d="M182.516 102.985C184.553 105.157 186.252 109.545 186.267 112.667C186.28 115.451 177.214 153.172 175.975 155.488C175.198 156.941 172.848 157.506 171.216 156.631C168.517 155.185 168.629 154.142 173.636 134.196C176.256 123.761 178.407 114.328 178.416 113.234C178.426 112.141 177.89 110.18 177.226 108.877C175.756 105.994 175.695 104.192 177.017 102.73C178.383 101.22 180.973 101.34 182.516 102.985Z" fill="white"/>
<path d="M170.253 127.69C171.915 124.894 171.661 120.896 169.74 119.612C167.596 118.178 164.488 119.729 163.797 122.579C163.622 123.301 158.389 131.95 152.167 141.798C145.34 152.605 140.856 160.298 140.856 161.202C140.856 164.494 144.449 166.163 146.922 164.019C147.821 163.241 165.309 136.009 170.253 127.69Z" fill="white"/>
<path d="M119.802 168.937C119.686 167.843 119.438 167.494 118.958 167.494C118.441 167.494 117.941 168.034 117.499 168.937H119.802Z" fill="white"/>
</svg>
